<?xml version="1.0" ?>

<!-- Uploaded to: SVG Repo, www.svgrepo.com, Generator: SVG Repo Mixer Tools -->
<svg width="800px" height="800px" viewBox="0 0 6.3500002 6.3500002" id="svg1976" version="1.1" xmlns="http://www.w3.org/2000/svg" xmlns:cc="http://creativecommons.org/ns#" xmlns:dc="http://purl.org/dc/elements/1.1/" xmlns:inkscape="http://www.inkscape.org/namespaces/inkscape" xmlns:rdf="http://www.w3.org/1999/02/22-rdf-syntax-ns#" xmlns:sodipodi="http://sodipodi.sourceforge.net/DTD/sodipodi-0.dtd" xmlns:svg="http://www.w3.org/2000/svg">

<defs id="defs1970"/>

<g id="layer1" style="display:inline">

<path d="m 3.1752593,2.58325e-4 c -1.7503697,0 -3.176034575,1.423079675 -3.176034575,3.173449775 0,1.7503712 1.425664875,3.1760336 3.176034575,3.1760336 1.7503696,0 3.175516,-1.4256624 3.175516,-3.1760336 0,-1.7503701 -1.4251464,-3.173449775 -3.175516,-3.173449775 z m 0,0.792716495 A 0.2645835,0.2645835 0 0 1 3.4388081,1.0585916 V 1.3221415 A 0.2645835,0.2645835 0 0 1 3.1752593,1.5877583 0.2645835,0.2645835 0 0 1 2.9096414,1.3221415 V 1.0585916 A 0.2645835,0.2645835 0 0 1 3.1752593,0.79297482 Z M 4.7379546,1.680259 a 0.18859115,0.37127078 47.74642 0 1 0.014473,0 0.18859115,0.37127078 47.74642 0 1 0.1002533,0.2087729 L 4.1519475,3.7328484 A 0.18859115,0.37127078 47.74642 0 1 3.7623088,4.0863132 L 1.6771646,4.6578556 A 0.18859115,0.37127078 47.74642 0 1 1.4978459,4.459934 L 2.198579,2.6161194 A 0.18859115,0.37127078 47.74642 0 1 2.5882203,2.2626524 L 4.6733645,1.6911112 a 0.18859115,0.37127078 47.74642 0 1 0.064595,-0.010853 z M 3.1731902,2.6988017 A 0.47621186,0.47621186 0 0 0 2.6988029,3.1747416 0.47621186,0.47621186 0 0 0 3.1752593,3.651198 0.47621186,0.47621186 0 0 0 3.6511997,3.1747416 0.47621186,0.47621186 0 0 0 3.1752593,2.6988017 a 0.47621186,0.47621186 0 0 0 -0.00212,0 z M 1.058074,2.9101583 H 1.3236918 A 0.2645835,0.2645835 0 0 1 1.5872406,3.1737081 0.2645835,0.2645835 0 0 1 1.3236918,3.4393249 H 1.058074 A 0.2645835,0.2645835 0 0 1 0.79400922,3.1737081 0.2645835,0.2645835 0 0 1 1.058074,2.9101583 Z m 3.9687501,0 H 5.2924419 A 0.2645835,0.2645835 0 0 1 5.5559907,3.1737081 0.2645835,0.2645835 0 0 1 5.2924419,3.4393249 H 5.0268241 A 0.2645835,0.2645835 0 0 1 4.7627593,3.1737081 0.2645835,0.2645835 0 0 1 5.0268241,2.9101583 Z M 3.1752593,4.7617257 A 0.2645835,0.2645835 0 0 1 3.4388081,5.0273409 V 5.2908924 A 0.2645835,0.2645835 0 0 1 3.1752593,5.5565076 0.2645835,0.2645835 0 0 1 2.9096414,5.2908924 V 5.0273409 A 0.2645835,0.2645835 0 0 1 3.1752593,4.7617257 Z" id="circle852" style="color:#FFFFFF;font-style:normal;font-variant:normal;font-weight:normal;font-stretch:normal;font-size:medium;line-height:normal;font-family:sans-serif;font-variant-ligatures:normal;font-variant-position:normal;font-variant-caps:normal;font-variant-numeric:normal;font-variant-alternates:normal;font-variant-east-asian:normal;font-feature-settings:normal;font-variation-settings:normal;text-indent:0;text-align:start;text-decoration:none;text-decoration-line:none;text-decoration-style:solid;text-decoration-color:#FFFFFF;letter-spacing:normal;word-spacing:normal;text-transform:none;writing-mode:lr-tb;direction:ltr;text-orientation:mixed;dominant-baseline:auto;baseline-shift:baseline;text-anchor:start;white-space:normal;shape-padding:0;shape-margin:0;inline-size:0;clip-rule:nonzero;display:inline;overflow:visible;visibility:visible;isolation:auto;mix-blend-mode:normal;color-interpolation:sRGB;color-interpolation-filters:linearRGB;solid-color:#FFFFFF;solid-opacity:1;vector-effect:none;fill:#FFFFFF;fill-opacity:1;fill-rule:nonzero;stroke:none;stroke-width:0.529167;stroke-linecap:round;stroke-linejoin:round;stroke-miterlimit:4;stroke-dasharray:none;stroke-dashoffset:0;stroke-opacity:1;paint-order:stroke fill markers;color-rendering:auto;image-rendering:auto;shape-rendering:auto;text-rendering:auto;enable-background:accumulate;stop-color:#FFFFFF"/>

</g>

</svg>